<svg width="66" height="45" viewBox="0 0 66 45" fill="none" xmlns="http://www.w3.org/2000/svg">
<path d="M3.25586 15H0.833984V0H3.25586V15ZM5.36523 9.61914C5.36523 8.59049 5.56055 7.67253 5.95117 6.86523C6.3418 6.05143 6.90169 5.41016 7.63086 4.94141C8.36654 4.47266 9.2487 4.23828 10.2773 4.23828C11.319 4.23828 12.2077 4.47266 12.9434 4.94141C13.679 5.41016 14.2389 6.05143 14.623 6.86523C15.0137 7.67253 15.209 8.59049 15.209 9.61914V9.82422C15.209 10.8464 15.0137 11.7643 14.623 12.5781C14.2389 13.3854 13.679 14.0234 12.9434 14.4922C12.2142 14.9609 11.332 15.1953 10.2969 15.1953C9.26172 15.1953 8.3763 14.9609 7.64062 14.4922C6.90495 14.0234 6.3418 13.3854 5.95117 12.5781C5.56055 11.7643 5.36523 10.8464 5.36523 9.82422V9.61914ZM7.78711 9.82422C7.78711 10.4492 7.87174 11.0221 8.04102 11.543C8.2168 12.0573 8.49023 12.4707 8.86133 12.7832C9.23242 13.0957 9.71094 13.252 10.2969 13.252C10.8763 13.252 11.3483 13.0957 11.7129 12.7832C12.084 12.4707 12.3542 12.0573 12.5234 11.543C12.6992 11.0221 12.7871 10.4492 12.7871 9.82422V9.61914C12.7871 9.00716 12.6992 8.44076 12.5234 7.91992C12.3542 7.39909 12.084 6.97917 11.7129 6.66016C11.3418 6.34115 10.8633 6.18164 10.2773 6.18164C9.69792 6.18164 9.22266 6.34115 8.85156 6.66016C8.48698 6.97917 8.2168 7.39909 8.04102 7.91992C7.87174 8.44076 7.78711 9.00716 7.78711 9.61914V9.82422ZM23.5098 4.43359H25.9316V15H23.6465L23.5879 13.9355C23.2559 14.3327 22.8457 14.6419 22.3574 14.8633C21.8691 15.0846 21.2897 15.1953 20.6191 15.1953C19.5775 15.1953 18.7344 14.8893 18.0898 14.2773C17.4453 13.6654 17.123 12.6595 17.123 11.2598V4.43359H19.5449V11.2793C19.5449 12.015 19.7109 12.5228 20.043 12.8027C20.375 13.0762 20.7689 13.2129 21.2246 13.2129C21.8236 13.2129 22.3053 13.1055 22.6699 12.8906C23.041 12.6693 23.321 12.373 23.5098 12.002V4.43359ZM30.7363 19.0625H28.3145V4.43359H30.5508L30.6484 5.51758C30.9805 5.10742 31.3809 4.79167 31.8496 4.57031C32.3184 4.34896 32.8587 4.23828 33.4707 4.23828C34.3626 4.23828 35.1146 4.46289 35.7266 4.91211C36.3385 5.36133 36.8008 5.98958 37.1133 6.79688C37.4323 7.60417 37.5918 8.54167 37.5918 9.60938V9.81445C37.5918 10.8431 37.4323 11.7643 37.1133 12.5781C36.8008 13.3854 36.3385 14.0234 35.7266 14.4922C35.1211 14.9609 34.3789 15.1953 33.5 15.1953C32.901 15.1953 32.3737 15.0944 31.918 14.8926C31.4622 14.6908 31.0684 14.4043 30.7363 14.0332V19.0625ZM35.1699 9.60938C35.1699 8.97786 35.0885 8.4082 34.9258 7.90039C34.7695 7.38607 34.5156 6.97917 34.1641 6.67969C33.819 6.3737 33.3665 6.2207 32.8066 6.2207C32.2923 6.2207 31.8659 6.32812 31.5273 6.54297C31.1888 6.75781 30.9251 7.05078 30.7363 7.42188V12.0215C30.9251 12.3861 31.1855 12.6823 31.5176 12.9102C31.8561 13.138 32.2923 13.252 32.8262 13.252C33.3861 13.252 33.8385 13.0957 34.1836 12.7832C34.5286 12.4707 34.7793 12.054 34.9355 11.5332C35.0918 11.0124 35.1699 10.4395 35.1699 9.81445V9.60938ZM39.1152 9.61914C39.1152 8.59049 39.3105 7.67253 39.7012 6.86523C40.0918 6.05143 40.6517 5.41016 41.3809 4.94141C42.1165 4.47266 42.9987 4.23828 44.0273 4.23828C45.069 4.23828 45.9577 4.47266 46.6934 4.94141C47.429 5.41016 47.9889 6.05143 48.373 6.86523C48.7637 7.67253 48.959 8.59049 48.959 9.61914V9.82422C48.959 10.8464 48.7637 11.7643 48.373 12.5781C47.9889 13.3854 47.429 14.0234 46.6934 14.4922C45.9642 14.9609 45.082 15.1953 44.0469 15.1953C43.0117 15.1953 42.1263 14.9609 41.3906 14.4922C40.6549 14.0234 40.0918 13.3854 39.7012 12.5781C39.3105 11.7643 39.1152 10.8464 39.1152 9.82422V9.61914ZM41.5371 9.82422C41.5371 10.4492 41.6217 11.0221 41.791 11.543C41.9668 12.0573 42.2402 12.4707 42.6113 12.7832C42.9824 13.0957 43.4609 13.252 44.0469 13.252C44.6263 13.252 45.0983 13.0957 45.4629 12.7832C45.834 12.4707 46.1042 12.0573 46.2734 11.543C46.4492 11.0221 46.5371 10.4492 46.5371 9.82422V9.61914C46.5371 9.00716 46.4492 8.44076 46.2734 7.91992C46.1042 7.39909 45.834 6.97917 45.4629 6.66016C45.0918 6.34115 44.6133 6.18164 44.0273 6.18164C43.4479 6.18164 42.9727 6.34115 42.6016 6.66016C42.237 6.97917 41.9668 7.39909 41.791 7.91992C41.6217 8.44076 41.5371 9.00716 41.5371 9.61914V9.82422ZM57.2598 4.43359H59.6816V15H57.3965L57.3379 13.9355C57.0059 14.3327 56.5957 14.6419 56.1074 14.8633C55.6191 15.0846 55.0397 15.1953 54.3691 15.1953C53.3275 15.1953 52.4844 14.8893 51.8398 14.2773C51.1953 13.6654 50.873 12.6595 50.873 11.2598V4.43359H53.2949V11.2793C53.2949 12.015 53.4609 12.5228 53.793 12.8027C54.125 13.0762 54.5189 13.2129 54.9746 13.2129C55.5736 13.2129 56.0553 13.1055 56.4199 12.8906C56.791 12.6693 57.071 12.373 57.2598 12.002V4.43359ZM64.6426 15H62.2207V0H64.6426V15ZM33.5488 42.7891C33.5488 42.4049 33.6725 42.0859 33.9199 41.832C34.1738 41.5716 34.5189 41.4414 34.9551 41.4414C35.3978 41.4414 35.7428 41.5716 35.9902 41.832C36.2441 42.0859 36.3711 42.4049 36.3711 42.7891C36.3711 43.1602 36.2441 43.4727 35.9902 43.7266C35.7428 43.9805 35.3978 44.1074 34.9551 44.1074C34.5189 44.1074 34.1738 43.9805 33.9199 43.7266C33.6725 43.4727 33.5488 43.1602 33.5488 42.7891ZM41.4785 44H39.0469V33.4336H41.332L41.4102 34.5859C41.7617 34.1628 42.1914 33.834 42.6992 33.5996C43.2135 33.3587 43.806 33.2383 44.4766 33.2383C45.1276 33.2383 45.7038 33.3685 46.2051 33.6289C46.7064 33.8893 47.0938 34.3027 47.3672 34.8691C47.7122 34.3743 48.1549 33.9805 48.6953 33.6875C49.2422 33.388 49.8802 33.2383 50.6094 33.2383C51.6836 33.2383 52.5267 33.541 53.1387 34.1465C53.7572 34.752 54.0664 35.7643 54.0664 37.1836V44H51.6348V37.1641C51.6348 36.3893 51.4655 35.8717 51.127 35.6113C50.7949 35.3509 50.3457 35.2207 49.7793 35.2207C49.252 35.2207 48.819 35.3607 48.4805 35.6406C48.1419 35.9206 47.9043 36.2852 47.7676 36.7344C47.7676 36.806 47.7676 36.8809 47.7676 36.959V44H45.3457V37.1836C45.3457 36.4349 45.1764 35.9206 44.8379 35.6406C44.5059 35.3607 44.0534 35.2207 43.4805 35.2207C42.9792 35.2207 42.5658 35.3281 42.2402 35.543C41.9147 35.7513 41.6608 36.0378 41.4785 36.4023V44ZM61.1367 44.1953C60.0885 44.1953 59.1836 43.9707 58.4219 43.5215C57.6602 43.0658 57.0742 42.4538 56.6641 41.6855C56.2539 40.9108 56.0488 40.0449 56.0488 39.0879V38.6875C56.0488 37.5872 56.2572 36.6302 56.6738 35.8164C57.0905 34.9961 57.6602 34.3613 58.3828 33.9121C59.112 33.4629 59.9355 33.2383 60.8535 33.2383C61.8691 33.2383 62.7122 33.4596 63.3828 33.9023C64.0534 34.3385 64.5547 34.9473 64.8867 35.7285C65.2188 36.5033 65.3848 37.4017 65.3848 38.4238V39.4688H58.4902C58.5553 40.2695 58.832 40.9336 59.3203 41.4609C59.8086 41.9818 60.4629 42.2422 61.2832 42.2422C61.8496 42.2422 62.3509 42.1315 62.7871 41.9102C63.2233 41.6888 63.6042 41.3698 63.9297 40.9531L65.1992 42.2227C64.8607 42.724 64.3594 43.1797 63.6953 43.5898C63.0312 43.9935 62.1784 44.1953 61.1367 44.1953ZM60.8438 35.1816C60.1992 35.1816 59.6816 35.4095 59.291 35.8652C58.9004 36.321 58.6497 36.9395 58.5391 37.7207H62.9922V37.5352C62.9792 37.125 62.8978 36.7409 62.748 36.3828C62.6048 36.0247 62.377 35.735 62.0645 35.5137C61.7585 35.2923 61.3516 35.1816 60.8438 35.1816Z" fill="black"/>
</svg>
